<svg
                    width="54"
                    height="54"
                    viewBox="0 0 54 54"
                    fill="none"
                    xmlns="http://www.w3.org/2000/svg"
                  >
                    <path
                      d="M33.075 42.525C33.615 42.525 34.0875 42.3225 34.4925 41.9175C34.8975 41.5125 35.1 41.04 35.1 40.5C35.1 39.96 34.8975 39.4875 34.4925 39.0825C34.0875 38.6775 33.615 38.475 33.075 38.475C32.535 38.475 32.0625 38.6775 31.6575 39.0825C31.2525 39.4875 31.05 39.96 31.05 40.5C31.05 41.04 31.2525 41.5125 31.6575 41.9175C32.0625 42.3225 32.535 42.525 33.075 42.525ZM40.5 42.525C41.04 42.525 41.5125 42.3225 41.9175 41.9175C42.3225 41.5125 42.525 41.04 42.525 40.5C42.525 39.96 42.3225 39.4875 41.9175 39.0825C41.5125 38.6775 41.04 38.475 40.5 38.475C39.96 38.475 39.4875 38.6775 39.0825 39.0825C38.6775 39.4875 38.475 39.96 38.475 40.5C38.475 41.04 38.6775 41.5125 39.0825 41.9175C39.4875 42.3225 39.96 42.525 40.5 42.525ZM47.925 42.525C48.465 42.525 48.9375 42.3225 49.3425 41.9175C49.7475 41.5125 49.95 41.04 49.95 40.5C49.95 39.96 49.7475 39.4875 49.3425 39.0825C48.9375 38.6775 48.465 38.475 47.925 38.475C47.385 38.475 46.9125 38.6775 46.5075 39.0825C46.1025 39.4875 45.9 39.96 45.9 40.5C45.9 41.04 46.1025 41.5125 46.5075 41.9175C46.9125 42.3225 47.385 42.525 47.925 42.525ZM5.4 48.6C3.915 48.6 2.6442 48.0717 1.5876 47.0151C0.531 45.9585 0.0018 44.6868 0 43.2V5.4C0 3.915 0.5292 2.6442 1.5876 1.5876C2.646 0.531 3.9168 0.0018 5.4 0H43.2C44.685 0 45.9567 0.5292 47.0151 1.5876C48.0735 2.646 48.6018 3.9168 48.6 5.4V23.49C47.745 23.085 46.8675 22.7367 45.9675 22.4451C45.0675 22.1535 44.145 21.9393 43.2 21.8025V5.4H5.4V43.2H21.735C21.87 44.19 22.0842 45.135 22.3776 46.035C22.671 46.935 23.0193 47.79 23.4225 48.6H5.4ZM5.4 40.5V43.2V5.4V21.8025V21.6V40.5ZM10.8 37.8H21.8025C21.9375 36.855 22.1517 35.9325 22.4451 35.0325C22.7385 34.1325 23.0643 33.255 23.4225 32.4H10.8V37.8ZM10.8 27H27.27C28.71 25.65 30.3192 24.525 32.0976 23.625C33.876 22.725 35.7768 22.1175 37.8 21.8025V21.6H10.8V27ZM10.8 16.2H37.8V10.8H10.8V16.2ZM40.5 54C36.765 54 33.5817 52.6833 30.9501 50.0499C28.3185 47.4165 27.0018 44.2332 27 40.5C26.9982 36.7668 28.3149 33.5835 30.9501 30.9501C33.5853 28.3167 36.7686 27 40.5 27C44.2314 27 47.4156 28.3167 50.0526 30.9501C52.6896 33.5835 54.0054 36.7668 54 40.5C53.9946 44.2332 52.6779 47.4174 50.0499 50.0526C47.4219 52.6878 44.2386 54.0036 40.5 54Z"
                      fill="#0222D7"
                    />
                  </svg>