<svg
                    width="56"
                    height="73"
                    viewBox="0 0 56 73"
                    fill="none"
                    xmlns="http://www.w3.org/2000/svg"
                  >
                    <path
                      d="M18.8426 57.3164C22.0102 57.6016 25.5025 57.7238 27.9797 57.7238C30.4569 57.7238 33.9492 57.6016 37.1168 57.3164L35.5736 66.808C35.4889 67.4877 35.1561 68.1117 34.6396 68.5597L33.2183 69.8633C33.1371 69.9448 33.0152 70.0262 32.934 70.1484L31.4315 71.9408C30.9036 72.5926 30.0102 73 29.0761 73H26.8426C25.9086 73 25.0152 72.5926 24.4467 71.9001L22.9442 70.1077C22.8629 70.0262 22.7817 69.904 22.6599 69.8225L21.2386 68.519C20.7363 68.0597 20.4065 67.4413 20.3046 66.7673L18.8426 57.3164ZM27.9797 0C20.559 0 13.4423 2.95711 8.19506 8.22079C2.94785 13.4845 0 20.6236 0 28.0675C0 40.0033 7.43147 50.1875 17.868 54.2612C19.2893 54.5871 20.5888 54.75 21.8883 54.8722V28.923C21.8883 25.5419 24.6091 22.8125 27.9797 22.8125C31.3503 22.8125 34.0711 25.5419 34.0711 28.923V55.0352C35.9797 54.9129 37.6041 54.7093 38.4569 54.139C43.639 52.0432 48.0783 48.4411 51.2043 43.7954C54.3303 39.1497 56.0004 33.6725 56 28.0675C55.9594 12.5876 43.4518 0 27.9797 0ZM27.9797 26.8862C29.1168 26.8862 30.0102 27.7824 30.0102 28.923V54.1797C30.0102 55.3203 29.1168 55.1981 27.9797 55.1981C26.8426 55.1981 25.9492 55.3203 25.9492 54.1797V28.923C25.9492 27.8231 26.8426 26.8862 27.9797 26.8862Z"
                      fill="#0222D7"
                    />
                  </svg>