<svg
                    width="70"
                    height="49"
                    viewBox="0 0 70 49"
                    fill="none"
                    xmlns="http://www.w3.org/2000/svg"
                  >
                    <path
                      d="M35 0L0 13.1441L35 30.669L51.6701 22.3221L36.0317 17.534C35.7096 17.6886 35.3572 17.7693 35 17.7701C34.364 17.7701 33.754 17.517 33.3043 17.0667C32.8545 16.6163 32.6019 16.0054 32.6019 15.3685C32.6019 14.7316 32.8545 14.1207 33.3043 13.6703C33.754 13.22 34.364 12.9669 35 12.9669L34.6034 14.2581L37.3818 15.1141L37.383 15.1225L41.4829 16.3781L64.8269 23.5706V25.3937C64.504 25.6137 64.2397 25.9093 64.0568 26.2548C63.874 26.6004 63.7782 26.9854 63.7777 27.3765C63.7782 27.7765 63.8784 28.1701 64.0693 28.5215C64.2602 28.8729 64.5357 29.171 64.8708 29.3887C63.7792 33.5201 63.7777 42.8939 63.7777 46.5888C66.1759 48.1491 66.1759 48.2061 68.574 46.5888C68.574 42.8943 68.5728 33.5224 67.4813 29.39C67.8166 29.1721 68.0922 28.8738 68.283 28.5221C68.4738 28.1704 68.5739 27.7766 68.574 27.3763C68.574 26.9848 68.4783 26.5993 68.2955 26.2532C68.1126 25.9072 67.848 25.6112 67.5248 25.391V21.5755L58.6331 18.8358L70 13.1441L35 0ZM14.5593 23.9241L12.5923 35.7428C16.5156 36.2566 21.2086 38.5401 25.5228 41.2404C27.9764 42.7762 30.2746 44.4619 32.1411 46.0976C33.282 47.0972 34.236 48.0563 35 49C35.764 48.0562 36.718 47.0972 37.8589 46.0976C39.7254 44.4619 42.0234 42.7762 44.4772 41.2404C48.7914 38.5401 53.4844 36.2566 57.4076 35.7428L55.4404 23.9241H54.5036L35 33.6899L15.4961 23.9241H14.5593Z"
                      fill="#0222D7"
                    />
                  </svg>