<svg className="w-full h-full" viewBox="0 0 83 83" fill="none" xmlns="http://www.w3.org/2000/svg">
                  <path d="M41.5 0C42.6007 0 43.6562 0.434528 44.4345 1.20799C45.2128 1.98146 45.65 3.0305 45.65 4.12434C45.65 5.21819 45.2128 6.26723 44.4345 7.0407C43.6562 7.81416 42.6007 8.24869 41.5 8.24869C34.9337 8.24869 28.5148 10.1838 23.0551 13.8093C17.5954 17.4348 13.34 22.5879 10.8272 28.6169C8.31437 34.6459 7.6569 41.28 8.93793 47.6804C10.219 54.0808 13.381 59.9599 18.0241 64.5743C22.6672 69.1887 28.5828 72.3311 35.023 73.6042C41.4632 74.8773 48.1386 74.2239 54.2051 71.7266C60.2716 69.2293 65.4567 65.0003 69.1048 59.5744C72.7529 54.1484 74.7 47.7692 74.7 41.2434C74.7 40.1496 75.1372 39.1006 75.9155 38.3271C76.6938 37.5536 77.7494 37.1191 78.85 37.1191C79.9507 37.1191 81.0062 37.5536 81.7845 38.3271C82.5628 39.1006 83 40.1496 83 41.2434C83 64.0222 64.4204 82.4869 41.5 82.4869C18.5796 82.4869 0 64.0222 0 41.2434C0 18.4647 18.5796 0 41.5 0ZM41.5 16.4974C42.6007 16.4974 43.6562 16.9319 44.4345 17.7054C45.2128 18.4788 45.65 19.5279 45.65 20.6217C45.65 21.7156 45.2128 22.7646 44.4345 23.5381C43.6562 24.3115 42.6007 24.7461 41.5 24.7461C38.2168 24.7461 35.0074 25.7136 32.2775 27.5264C29.5477 29.3391 27.42 31.9157 26.1636 34.9302C24.9072 37.9447 24.5784 41.2617 25.219 44.4619C25.8595 47.6621 27.4405 50.6017 29.762 52.9089C32.0836 55.2161 35.0414 56.7873 38.2615 57.4238C41.4816 58.0604 44.8193 57.7337 47.8525 56.485C50.8858 55.2364 53.4784 53.1219 55.3024 50.4089C57.1264 47.6959 58.1 44.5063 58.1 41.2434C58.1 40.1496 58.5372 39.1006 59.3155 38.3271C60.0938 37.5536 61.1494 37.1191 62.25 37.1191C63.3507 37.1191 64.4062 37.5536 65.1845 38.3271C65.9628 39.1006 66.4 40.1496 66.4 41.2434C66.4 46.1378 64.9396 50.9222 62.2036 54.9916C59.4675 59.0611 55.5787 62.2329 51.0288 64.1058C46.4789 65.9788 41.4724 66.4689 36.6423 65.514C31.8121 64.5592 27.3754 62.2024 23.893 58.7416C20.4107 55.2808 18.0392 50.8714 17.0784 46.0712C16.1177 41.2709 16.6108 36.2953 18.4954 31.7735C20.38 27.2518 23.5715 23.387 27.6663 20.6678C31.7611 17.9487 36.5752 16.4974 41.5 16.4974ZM68.7696 0.412434C69.32 0.412434 69.8478 0.629698 70.2369 1.01643C70.626 1.40316 70.8447 1.92768 70.8447 2.47461V10.0222C70.8457 10.5684 71.0648 11.0918 71.4539 11.4777C71.8429 11.8635 72.37 12.0802 72.9196 12.0802H80.51C81.0603 12.0802 81.5881 12.2975 81.9772 12.6842C82.3664 13.0709 82.585 13.5955 82.585 14.1424V17.9162L74.7498 25.7029C73.1936 27.25 71.0828 28.1193 68.8817 28.1198H60.5817L44.4382 44.1594C43.6555 44.9106 42.6072 45.3264 41.5191 45.317C40.431 45.3076 39.3901 44.8738 38.6207 44.1091C37.8512 43.3444 37.4148 42.31 37.4053 41.2286C37.3958 40.1472 37.8141 39.1054 38.5701 38.3275L54.7136 22.288V14.0393C54.713 11.8524 55.5862 9.75469 57.1413 8.20745L64.9849 0.412434H68.7696Z" fill="white"/>
                </svg>