<svg width="49" height="82" viewBox="0 0 49 82" fill="none" xmlns="http://www.w3.org/2000/svg">
<path d="M7.99934 0C9.53196 0 11.0428 0.0830282 12.5318 0.249084C13.0649 0.308069 13.581 0.471461 14.0509 0.729932C14.5208 0.988403 14.9351 1.33689 15.2703 1.7555C15.6055 2.1741 15.855 2.65463 16.0044 3.16964C16.1539 3.68466 16.2005 4.22407 16.1415 4.75708C16.0825 5.2901 15.9191 5.80627 15.6607 6.27614C15.4022 6.74601 15.0537 7.16037 14.6351 7.49555C14.2165 7.83074 13.736 8.0802 13.221 8.22968C12.7059 8.37916 12.1665 8.42573 11.6335 8.36675C4.90436 7.61396 -1.89243 8.97084 -7.81673 12.2497C-13.741 15.5285 -18.5 20.5673 -21.4355 26.6691C-24.371 32.7708 -25.3378 39.6339 -24.2023 46.3092C-23.0667 52.9844 -19.885 59.1418 -15.097 63.9297C-10.3091 68.7176 -4.15172 71.8994 2.52351 73.0349C9.19875 74.1705 16.0619 73.2036 22.1636 70.2682C28.2654 67.3327 33.3041 62.5737 36.583 56.6494C39.8618 50.7251 41.2187 43.9283 40.4659 37.1992C40.4069 36.6661 40.4535 36.1267 40.603 35.6117C40.7525 35.0967 41.0019 34.6162 41.3371 34.1976C42.0141 33.3522 42.9991 32.8103 44.0756 32.6912C45.1521 32.572 46.2318 32.8854 47.0772 33.5624C47.4958 33.8975 47.8443 34.3119 48.1027 34.7818C48.3612 35.2516 48.5246 35.7678 48.5836 36.3008C48.7469 37.7899 48.83 39.3007 48.8327 40.8333C48.8327 63.3856 30.5516 81.6667 7.99934 81.6667C-14.5529 81.6667 -32.834 63.3856 -32.834 40.8333C-32.834 18.2811 -14.5529 0 7.99934 0ZM7.86868 23.9977C8.13779 25.046 7.97972 26.1583 7.42921 27.0901C6.8787 28.0219 5.98079 28.697 4.93276 28.9672C2.05349 29.7214 -0.453007 31.4975 -2.119 33.964C-3.78499 36.4305 -4.49666 39.4189 -4.12121 42.3715C-3.74575 45.3242 -2.30882 48.0393 -0.0785599 50.0104C2.1517 51.9814 5.02293 53.0737 7.99934 53.0833C10.716 53.0845 13.356 52.1825 15.504 50.5194C17.6521 48.8562 19.1863 46.5262 19.8655 43.8958C20.1549 42.8683 20.8353 41.9949 21.7608 41.4629C22.6863 40.9308 23.7834 40.7824 24.817 41.0493C25.8506 41.3163 26.7386 41.9774 27.2907 42.8911C27.8428 43.8047 28.0152 44.8983 27.7708 45.9375C26.5182 50.7392 23.5603 54.9207 19.4496 57.7007C15.339 60.4807 10.3569 61.669 5.43403 61.0438C0.511158 60.4186 -4.01571 58.0225 -7.30088 54.3032C-10.586 50.5838 -12.4048 45.7957 -12.4173 40.8333C-12.418 36.3065 -10.9142 31.9078 -8.14241 28.3288C-5.37058 24.7498 -1.4879 22.1935 2.89518 21.0618C3.41452 20.928 3.95514 20.8977 4.48618 20.9728C5.0172 21.048 5.52824 21.2269 5.99008 21.4996C6.45193 21.7722 6.85555 22.1331 7.17788 22.5618C7.50021 22.9904 7.73495 23.4784 7.86868 23.9977ZM34.5573 0.518584C35.3027 0.827606 35.9397 1.35051 36.3881 2.02129C36.8365 2.69207 37.0762 3.48065 37.0768 4.2875V11.76H44.5452C45.3527 11.7602 46.142 11.9997 46.8133 12.4484C47.4846 12.8971 48.0079 13.5348 48.3169 14.2808C48.6258 15.0269 48.7067 15.8477 48.5492 16.6397C48.3917 17.4317 48.003 18.1592 47.4321 18.7302L32.9893 33.1567C32.2238 33.9225 31.1853 34.3528 30.1024 34.3531H20.2493L12.785 41.8215C12.0188 42.5877 10.9796 43.0181 9.89606 43.0181C8.81248 43.0181 7.7733 42.5877 7.0071 41.8215C6.2409 41.0553 5.81045 40.0161 5.81045 38.9325C5.81045 37.849 6.2409 36.8098 7.0071 36.0436L14.4755 28.5833V18.7262C14.4757 17.6433 14.9061 16.6048 15.6719 15.8392L30.1065 1.40058C30.6775 0.829191 31.4052 0.440013 32.1975 0.282286C32.9898 0.12456 33.811 0.205372 34.5573 0.5145M28.9101 14.1406L22.6422 20.4167V26.1905H28.416L34.688 19.9226H32.9934C31.9105 19.9226 30.8718 19.4924 30.1061 18.7266C29.3403 17.9608 28.9101 16.9222 28.9101 15.8392V14.1406Z" fill="#CDA7FF"/>
</svg>
