<svg width="48" height="98" viewBox="0 0 48 98" fill="none" xmlns="http://www.w3.org/2000/svg">
<g clip-path="url(#clip0_991_2537)">
<path d="M40.9993 8.16602C42.532 8.16602 44.0428 8.24904 45.5318 8.4151C46.0649 8.47408 46.581 8.63748 47.0509 8.89595C47.5208 9.15442 47.9351 9.50291 48.2703 9.92151C48.6055 10.3401 48.855 10.8206 49.0044 11.3357C49.1539 11.8507 49.2005 12.3901 49.1415 12.9231C49.0825 13.4561 48.9191 13.9723 48.6607 14.4422C48.4022 14.912 48.0537 15.3264 47.6351 15.6616C47.2165 15.9968 46.736 16.2462 46.221 16.3957C45.7059 16.5452 45.1665 16.5917 44.6335 16.5328C37.9044 15.78 31.1076 17.1369 25.1833 20.4157C19.259 23.6946 14.5 28.7333 11.5645 34.8351C8.62904 40.9368 7.66221 47.7999 8.79774 54.4752C9.93327 61.1504 13.115 67.3078 17.903 72.0957C22.6909 76.8836 28.8483 80.0654 35.5235 81.201C42.1987 82.3365 49.0619 81.3697 55.1636 78.4342C61.2654 75.4987 66.3041 70.7397 69.583 64.8154C72.8618 58.8911 74.2187 52.0943 73.4659 45.3652C73.4069 44.8322 73.4535 44.2928 73.603 43.7777C73.7525 43.2627 74.0019 42.7822 74.3371 42.3636C75.0141 41.5182 75.9991 40.9763 77.0756 40.8572C78.1521 40.7381 79.2318 41.0514 80.0772 41.7284C80.4958 42.0636 80.8443 42.4779 81.1027 42.9478C81.3612 43.4177 81.5246 43.9338 81.5836 44.4668C81.7469 45.9559 81.83 47.4667 81.8327 48.9993C81.8327 71.5516 63.5516 89.8327 40.9993 89.8327C18.4471 89.8327 0.166016 71.5516 0.166016 48.9993C0.166016 26.4471 18.4471 8.16602 40.9993 8.16602ZM40.8687 32.1638C41.1378 33.212 40.9797 34.3243 40.4292 35.2561C39.8787 36.1879 38.9808 36.8631 37.9328 37.1332C35.0535 37.8874 32.547 39.6635 30.881 42.13C29.215 44.5965 28.5033 47.5849 28.8788 50.5375C29.2542 53.4902 30.6912 56.2054 32.9214 58.1764C35.1517 60.1475 38.0229 61.2397 40.9993 61.2493C43.716 61.2505 46.356 60.3486 48.504 58.6854C50.6521 57.0222 52.1863 54.6922 52.8655 52.0618C53.1549 51.0343 53.8353 50.1609 54.7608 49.6289C55.6863 49.0968 56.7834 48.9484 57.817 49.2153C58.8506 49.4823 59.7386 50.1434 60.2907 51.0571C60.8428 51.9707 61.0152 53.0643 60.7708 54.1035C59.5182 58.9052 56.5603 63.0867 52.4496 65.8667C48.339 68.6467 43.3569 69.8351 38.434 69.2098C33.5112 68.5846 28.9843 66.1885 25.6991 62.4692C22.414 58.7499 20.5952 53.9618 20.5827 48.9993C20.582 44.4725 22.0858 40.0738 24.8576 36.4948C27.6294 32.9159 31.5121 30.3596 35.8952 29.2278C36.4145 29.094 36.9551 29.0638 37.4862 29.1389C38.0172 29.214 38.5282 29.3929 38.9901 29.6656C39.4519 29.9382 39.8555 30.2992 40.1779 30.7278C40.5002 31.1564 40.735 31.6444 40.8687 32.1638ZM67.5573 8.6846C68.3027 8.99362 68.9397 9.51653 69.3881 10.1873C69.8365 10.8581 70.0762 11.6467 70.0768 12.4535V19.926H77.5452C78.3527 19.9262 79.142 20.1658 79.8133 20.6145C80.4846 21.0632 81.0079 21.7008 81.3169 22.4468C81.6258 23.1929 81.7067 24.0138 81.5492 24.8057C81.3917 25.5977 81.003 26.3252 80.4321 26.8963L65.9893 41.3227C65.2238 42.0885 64.1853 42.5189 63.1024 42.5191H53.2493L45.785 49.9875C45.0188 50.7537 43.9796 51.1842 42.8961 51.1842C41.8125 51.1842 40.7733 50.7537 40.0071 49.9875C39.2409 49.2213 38.8104 48.1821 38.8104 47.0986C38.8104 46.015 39.2409 44.9758 40.0071 44.2096L47.4755 36.7493V26.8922C47.4757 25.8093 47.9061 24.7709 48.6719 24.0053L63.1065 9.5666C63.6775 8.99521 64.4052 8.60603 65.1975 8.4483C65.9898 8.29058 66.811 8.37139 67.5573 8.68052M61.9101 22.3066L55.6422 28.5827V34.3565H61.416L67.688 28.0886H65.9934C64.9105 28.0886 63.8718 27.6584 63.1061 26.8926C62.3403 26.1268 61.9101 25.0882 61.9101 24.0053V22.3066Z" fill="#CDA7FF"/>
</g>
<defs>
<clipPath id="clip0_991_2537">
<rect width="48" height="98" fill="white"/>
</clipPath>
</defs>
</svg>
