 <svg
                    width="55"
                    height="49"
                    viewBox="0 0 55 49"
                    fill="none"
                    xmlns="http://www.w3.org/2000/svg"
                  >
                    <path
                      d="M51.7222 25.0989C51.7222 10.1539 40.1256 0 27.2222 0C14.455 0 2.72222 9.93611 2.72222 25.2622C1.08889 26.1878 0 27.93 0 29.9444V35.3889C0 38.3833 2.45 40.8333 5.44444 40.8333H8.16667V24.2278C8.16667 13.6928 16.6872 5.17222 27.2222 5.17222C37.7572 5.17222 46.2778 13.6928 46.2778 24.2278V43.5556H24.5V49H46.2778C49.2722 49 51.7222 46.55 51.7222 43.5556V40.2344C53.3283 39.3906 54.4444 37.73 54.4444 35.77V29.5089C54.4444 27.6033 53.3283 25.9428 51.7222 25.0989Z"
                      fill="#0222D7"
                    />
                    <path
                      d="M19.0562 29.9444C20.5596 29.9444 21.7784 28.7257 21.7784 27.2222C21.7784 25.7188 20.5596 24.5 19.0562 24.5C17.5528 24.5 16.334 25.7188 16.334 27.2222C16.334 28.7257 17.5528 29.9444 19.0562 29.9444Z"
                      fill="#0222D7"
                    />
                    <path
                      d="M35.3882 29.9444C36.8917 29.9444 38.1105 28.7257 38.1105 27.2222C38.1105 25.7188 36.8917 24.5 35.3882 24.5C33.8848 24.5 32.666 25.7188 32.666 27.2222C32.666 28.7257 33.8848 29.9444 35.3882 29.9444Z"
                      fill="#0222D7"
                    />
                    <path
                      d="M43.5563 21.8598C42.9072 18.0327 40.925 14.5587 37.9606 12.0526C34.9962 9.54661 31.2408 8.17018 27.359 8.16699C19.1107 8.16699 10.2363 14.9998 10.944 25.7253C14.3016 24.3527 17.267 22.17 19.5755 19.3722C21.8841 16.5744 23.4639 13.2485 24.174 9.69144C27.7401 16.8509 35.0629 21.7781 43.5563 21.8598Z"
                      fill="#0222D7"
                    />
                  </svg>