              <svg width="300" height="75" viewBox="0 0 236 45" fill="none" xmlns="http://www.w3.org/2000/svg">
<path d="M9.34981 34.8501V7.75009H-0.000195302V1.50009H26.9498V7.75009H17.4498V34.8501H9.34981ZM38.7439 35.6001C34.4773 35.6001 31.2606 34.4668 29.0939 32.2001C26.9606 29.9001 25.8939 26.5334 25.8939 22.1001C25.8939 17.3334 26.9773 13.9168 29.1439 11.8501C31.3439 9.7501 34.5439 8.7001 38.7439 8.7001C41.5773 8.7001 43.9439 9.18343 45.8439 10.1501C47.7773 11.0834 49.2273 12.5334 50.1939 14.5001C51.1939 16.4668 51.6939 19.0001 51.6939 22.1001C51.6939 26.5334 50.5773 29.9001 48.3439 32.2001C46.1106 34.4668 42.9106 35.6001 38.7439 35.6001ZM38.7439 29.6501C39.9773 29.6501 40.9939 29.3668 41.7939 28.8001C42.6273 28.2001 43.2439 27.3501 43.6439 26.2501C44.0773 25.1168 44.2939 23.7334 44.2939 22.1001C44.2939 20.2334 44.0773 18.7668 43.6439 17.7001C43.2439 16.6001 42.6273 15.8168 41.7939 15.3501C40.9606 14.8501 39.9439 14.6001 38.7439 14.6001C37.4773 14.6001 36.4439 14.8501 35.6439 15.3501C34.8439 15.8501 34.2439 16.6501 33.8439 17.7501C33.4773 18.8168 33.2939 20.2668 33.2939 22.1001C33.2939 24.6334 33.7273 26.5334 34.5939 27.8001C35.4939 29.0334 36.8773 29.6501 38.7439 29.6501ZM68.2361 35.6001C63.9695 35.6001 60.7528 34.4668 58.5861 32.2001C56.4528 29.9001 55.3861 26.5334 55.3861 22.1001C55.3861 17.3334 56.4695 13.9168 58.6361 11.8501C60.8361 9.7501 64.0361 8.7001 68.2361 8.7001C71.0695 8.7001 73.4361 9.18343 75.3361 10.1501C77.2695 11.0834 78.7195 12.5334 79.6861 14.5001C80.6861 16.4668 81.1861 19.0001 81.1861 22.1001C81.1861 26.5334 80.0695 29.9001 77.8361 32.2001C75.6028 34.4668 72.4028 35.6001 68.2361 35.6001ZM68.2361 29.6501C69.4695 29.6501 70.4861 29.3668 71.2861 28.8001C72.1195 28.2001 72.7361 27.3501 73.1361 26.2501C73.5695 25.1168 73.7861 23.7334 73.7861 22.1001C73.7861 20.2334 73.5695 18.7668 73.1361 17.7001C72.7361 16.6001 72.1195 15.8168 71.2861 15.3501C70.4528 14.8501 69.4361 14.6001 68.2361 14.6001C66.9695 14.6001 65.9361 14.8501 65.1361 15.3501C64.3361 15.8501 63.7361 16.6501 63.3361 17.7501C62.9695 18.8168 62.7861 20.2668 62.7861 22.1001C62.7861 24.6334 63.2195 26.5334 64.0861 27.8001C64.9861 29.0334 66.3695 29.6501 68.2361 29.6501ZM98.1783 35.5001C96.3783 35.5001 94.6783 35.2334 93.0783 34.7001C91.4783 34.1668 90.0617 33.3668 88.8283 32.3001C87.595 31.2334 86.6283 29.8834 85.9283 28.2501C85.2283 26.6168 84.8783 24.7168 84.8783 22.5501C84.8783 20.2501 85.2117 18.2501 85.8783 16.5501C86.545 14.8168 87.4617 13.3834 88.6283 12.2501C89.8283 11.1168 91.2283 10.2668 92.8283 9.7001C94.4283 9.13343 96.195 8.8501 98.1283 8.8501C99.495 8.8501 100.895 9.0001 102.328 9.3001C103.795 9.56676 105.078 9.9501 106.178 10.4501V16.8501C105.012 16.3168 103.862 15.8834 102.728 15.5501C101.628 15.1834 100.495 15.0001 99.3283 15.0001C97.2283 15.0001 95.5283 15.5334 94.2283 16.6001C92.9617 17.6334 92.3283 19.3334 92.3283 21.7001C92.3283 24.2001 92.895 26.0834 94.0283 27.3501C95.1617 28.6168 97.045 29.2501 99.6783 29.2501C100.912 29.2501 102.095 29.0334 103.228 28.6001C104.395 28.1668 105.395 27.7168 106.228 27.2501V33.6001C105.062 34.2001 103.845 34.6668 102.578 35.0001C101.312 35.3334 99.845 35.5001 98.1783 35.5001ZM118.826 34.8501H111.426V9.63211e-05H118.826V34.8501ZM135.19 35.6001C133.656 35.6001 132.206 35.4501 130.84 35.1501C129.506 34.8834 128.323 34.4334 127.29 33.8001C126.29 33.1334 125.506 32.2501 124.94 31.1501C124.373 30.0168 124.09 28.6168 124.09 26.9501C124.09 25.3834 124.406 24.0168 125.04 22.8501C125.706 21.6834 126.706 20.7834 128.04 20.1501C129.373 19.5168 131.056 19.2001 133.09 19.2001C134.223 19.2001 135.323 19.3168 136.39 19.5501C137.456 19.7834 138.406 20.1001 139.24 20.5001C140.106 20.9001 140.79 21.3334 141.29 21.8001L141.59 25.4001C140.923 25.0001 140.123 24.6834 139.19 24.4501C138.256 24.2168 137.256 24.1001 136.19 24.1001C134.556 24.1001 133.356 24.3501 132.59 24.8501C131.856 25.3168 131.49 26.0668 131.49 27.1001C131.49 27.7334 131.673 28.3001 132.04 28.8001C132.406 29.3001 132.89 29.6834 133.49 29.9501C134.123 30.2168 134.773 30.3501 135.44 30.3501C137.14 30.3501 138.323 30.2334 138.99 30.0001C139.69 29.7668 140.04 29.3001 140.04 28.6001V19.3001C140.04 17.7668 139.54 16.6668 138.54 16.0001C137.573 15.3001 136.19 14.9501 134.39 14.9501C132.923 14.9501 131.44 15.2168 129.94 15.7501C128.473 16.2501 127.273 16.8668 126.34 17.6001V11.0001C127.206 10.4668 128.54 9.96676 130.34 9.5001C132.173 9.03343 134.223 8.8001 136.49 8.8001C137.29 8.8001 138.173 8.86676 139.14 9.0001C140.106 9.13343 141.073 9.38343 142.04 9.7501C143.006 10.0834 143.89 10.5834 144.69 11.2501C145.523 11.9168 146.19 12.7668 146.69 13.8001C147.19 14.8334 147.44 16.1168 147.44 17.6501L147.39 29.6001C147.39 31.0334 146.906 32.2001 145.94 33.1001C144.973 33.9668 143.573 34.6001 141.74 35.0001C139.94 35.4001 137.756 35.6001 135.19 35.6001ZM154.053 34.8501V12.2001C154.52 11.8001 155.353 11.3501 156.553 10.8501C157.753 10.3168 159.12 9.8501 160.653 9.4501C162.22 9.01676 163.786 8.8001 165.353 8.8001C166.92 8.8001 168.153 8.91676 169.053 9.1501C169.953 9.38343 170.636 9.68343 171.103 10.0501V15.5001C170.536 15.3668 169.82 15.2668 168.953 15.2001C168.086 15.1334 167.186 15.1001 166.253 15.1001C165.32 15.0668 164.436 15.0668 163.603 15.1001C162.77 15.1334 162.07 15.2001 161.503 15.3001V34.8501H154.053ZM175.59 34.8501V9.9001H183.04L183.09 34.8501H175.59ZM175.44 6.1001V0.350095H183.14V6.1001H175.44ZM200.096 35.8501C197.163 35.8501 194.98 35.1668 193.546 33.8001C192.113 32.4001 191.396 30.4334 191.396 27.9001V15.2501H187.696V9.5501H191.396V2.6001H199.196V9.5501H204.746V15.2501H199.196V26.9501C199.196 27.8168 199.38 28.4668 199.746 28.9001C200.113 29.3001 200.73 29.5001 201.596 29.5001C202.096 29.5001 202.646 29.4001 203.246 29.2001C203.846 29.0001 204.346 28.7501 204.746 28.4501V34.8501C204.046 35.2168 203.28 35.4668 202.446 35.6001C201.646 35.7668 200.863 35.8501 200.096 35.8501ZM215.901 44.6501C215.067 44.6501 214.251 44.5668 213.451 44.4001C212.651 44.2334 211.967 44.0168 211.401 43.7501V37.7001C211.934 37.9001 212.434 38.0334 212.901 38.1001C213.367 38.2001 213.851 38.2501 214.351 38.2501C215.184 38.2501 215.901 38.0501 216.501 37.6501C217.134 37.2834 217.651 36.6334 218.051 35.7001C218.451 34.8001 218.767 33.5668 219.001 32.0001L219.151 36.2501L208.301 9.5501H216.851L222.601 27.3001H221.851L227.551 9.5501H235.551L225.601 35.2501C224.701 37.5834 223.717 39.4334 222.651 40.8001C221.617 42.1668 220.534 43.1501 219.401 43.7501C218.267 44.3501 217.101 44.6501 215.901 44.6501Z" fill="#0222D7"/>
</svg>