<svg
                width="1190"
                height="294"
                viewBox="0 0 1190 294"
                fill="none"
                xmlns="http://www.w3.org/2000/svg"
              >
                <path
                  d="M52.75 241V105.5H6V74.25H140.75V105.5H93.25V241H52.75ZM199.721 244.75C178.387 244.75 162.304 239.083 151.471 227.75C140.804 216.25 135.471 199.417 135.471 177.25C135.471 153.417 140.887 136.333 151.721 126C162.721 115.5 178.721 110.25 199.721 110.25C213.887 110.25 225.721 112.667 235.221 117.5C244.887 122.167 252.137 129.417 256.971 139.25C261.971 149.083 264.471 161.75 264.471 177.25C264.471 199.417 258.887 216.25 247.721 227.75C236.554 239.083 220.554 244.75 199.721 244.75ZM199.721 215C205.887 215 210.971 213.583 214.971 210.75C219.137 207.75 222.221 203.5 224.221 198C226.387 192.333 227.471 185.417 227.471 177.25C227.471 167.917 226.387 160.583 224.221 155.25C222.221 149.75 219.137 145.833 214.971 143.5C210.804 141 205.721 139.75 199.721 139.75C193.387 139.75 188.221 141 184.221 143.5C180.221 146 177.221 150 175.221 155.5C173.387 160.833 172.471 168.083 172.471 177.25C172.471 189.917 174.637 199.417 178.971 205.75C183.471 211.917 190.387 215 199.721 215ZM347.182 244.75C325.848 244.75 309.765 239.083 298.932 227.75C288.265 216.25 282.932 199.417 282.932 177.25C282.932 153.417 288.348 136.333 299.182 126C310.182 115.5 326.182 110.25 347.182 110.25C361.348 110.25 373.182 112.667 382.682 117.5C392.348 122.167 399.598 129.417 404.432 139.25C409.432 149.083 411.932 161.75 411.932 177.25C411.932 199.417 406.348 216.25 395.182 227.75C384.015 239.083 368.015 244.75 347.182 244.75ZM347.182 215C353.348 215 358.432 213.583 362.432 210.75C366.598 207.75 369.682 203.5 371.682 198C373.848 192.333 374.932 185.417 374.932 177.25C374.932 167.917 373.848 160.583 371.682 155.25C369.682 149.75 366.598 145.833 362.432 143.5C358.265 141 353.182 139.75 347.182 139.75C340.848 139.75 335.682 141 331.682 143.5C327.682 146 324.682 150 322.682 155.5C320.848 160.833 319.932 168.083 319.932 177.25C319.932 189.917 322.098 199.417 326.432 205.75C330.932 211.917 337.848 215 347.182 215ZM496.893 244.25C487.893 244.25 479.393 242.917 471.393 240.25C463.393 237.583 456.309 233.583 450.143 228.25C443.976 222.917 439.143 216.167 435.643 208C432.143 199.833 430.393 190.333 430.393 179.5C430.393 168 432.059 158 435.393 149.5C438.726 140.833 443.309 133.667 449.143 128C455.143 122.333 462.143 118.083 470.143 115.25C478.143 112.417 486.976 111 496.643 111C503.476 111 510.476 111.75 517.643 113.25C524.976 114.583 531.393 116.5 536.893 119V151C531.059 148.333 525.309 146.167 519.643 144.5C514.143 142.667 508.476 141.75 502.643 141.75C492.143 141.75 483.643 144.417 477.143 149.75C470.809 154.917 467.643 163.417 467.643 175.25C467.643 187.75 470.476 197.167 476.143 203.5C481.809 209.833 491.226 213 504.393 213C510.559 213 516.476 211.917 522.143 209.75C527.976 207.583 532.976 205.333 537.143 203V234.75C531.309 237.75 525.226 240.083 518.893 241.75C512.559 243.417 505.226 244.25 496.893 244.25ZM600.131 241H563.131V66.75H600.131V241ZM681.949 244.75C674.283 244.75 667.033 244 660.199 242.5C653.533 241.167 647.616 238.917 642.449 235.75C637.449 232.417 633.533 228 630.699 222.5C627.866 216.833 626.449 209.833 626.449 201.5C626.449 193.667 628.033 186.833 631.199 181C634.533 175.167 639.533 170.667 646.199 167.5C652.866 164.333 661.283 162.75 671.449 162.75C677.116 162.75 682.616 163.333 687.949 164.5C693.283 165.667 698.033 167.25 702.199 169.25C706.533 171.25 709.949 173.417 712.449 175.75L713.949 193.75C710.616 191.75 706.616 190.167 701.949 189C697.283 187.833 692.283 187.25 686.949 187.25C678.783 187.25 672.783 188.5 668.949 191C665.283 193.333 663.449 197.083 663.449 202.25C663.449 205.417 664.366 208.25 666.199 210.75C668.033 213.25 670.449 215.167 673.449 216.5C676.616 217.833 679.866 218.5 683.199 218.5C691.699 218.5 697.616 217.917 700.949 216.75C704.449 215.583 706.199 213.25 706.199 209.75V163.25C706.199 155.583 703.699 150.083 698.699 146.75C693.866 143.25 686.949 141.5 677.949 141.5C670.616 141.5 663.199 142.833 655.699 145.5C648.366 148 642.366 151.083 637.699 154.75V121.75C642.033 119.083 648.699 116.583 657.699 114.25C666.866 111.917 677.116 110.75 688.449 110.75C692.449 110.75 696.866 111.083 701.699 111.75C706.533 112.417 711.366 113.667 716.199 115.5C721.033 117.167 725.449 119.667 729.449 123C733.616 126.333 736.949 130.583 739.449 135.75C741.949 140.917 743.199 147.333 743.199 155L742.949 214.75C742.949 221.917 740.533 227.75 735.699 232.25C730.866 236.583 723.866 239.75 714.699 241.75C705.699 243.75 694.783 244.75 681.949 244.75ZM776.266 241V127.75C778.599 125.75 782.766 123.5 788.766 121C794.766 118.333 801.599 116 809.266 114C817.099 111.833 824.932 110.75 832.766 110.75C840.599 110.75 846.766 111.333 851.266 112.5C855.766 113.667 859.182 115.167 861.516 117V144.25C858.682 143.583 855.099 143.083 850.766 142.75C846.432 142.417 841.932 142.25 837.266 142.25C832.599 142.083 828.182 142.083 824.016 142.25C819.849 142.417 816.349 142.75 813.516 143.25V241H776.266ZM883.949 241V116.25H921.199L921.449 241H883.949ZM883.199 97.25V68.5H921.699V97.25H883.199ZM1006.48 246C991.816 246 980.899 242.583 973.732 235.75C966.566 228.75 962.982 218.917 962.982 206.25V143H944.482V114.5H962.982V79.75H1001.98V114.5H1029.73V143H1001.98V201.5C1001.98 205.833 1002.9 209.083 1004.73 211.25C1006.57 213.25 1009.65 214.25 1013.98 214.25C1016.48 214.25 1019.23 213.75 1022.23 212.75C1025.23 211.75 1027.73 210.5 1029.73 209V241C1026.23 242.833 1022.4 244.083 1018.23 244.75C1014.23 245.583 1010.32 246 1006.48 246ZM1085.5 290C1081.34 290 1077.25 289.583 1073.25 288.75C1069.25 287.917 1065.84 286.833 1063 285.5V255.25C1065.67 256.25 1068.17 256.917 1070.5 257.25C1072.84 257.75 1075.25 258 1077.75 258C1081.92 258 1085.5 257 1088.5 255C1091.67 253.167 1094.25 249.917 1096.25 245.25C1098.25 240.75 1099.84 234.583 1101 226.75L1101.75 248L1047.5 114.5H1090.25L1119 203.25H1115.25L1143.75 114.5H1183.75L1134 243C1129.5 254.667 1124.59 263.917 1119.25 270.75C1114.09 277.583 1108.67 282.5 1103 285.5C1097.34 288.5 1091.5 290 1085.5 290Z"
                  fill="white"
                />
              </svg>