<svg className="w-full h-full" viewBox="0 0 83 72" fill="none" xmlns="http://www.w3.org/2000/svg">
                  <path d="M82.3151 1.81441C82.3028 1.65971 82.2465 1.51169 82.1526 1.38769C82.0587 1.2637 81.9312 1.16887 81.785 1.11432C72.0462 -2.58263 47.7296 3.21646 33.5707 14.1399C31.0475 16.0711 28.6985 18.2172 26.5503 20.5538C22.7147 19.7281 18.7999 19.5281 15.313 20.5472C5.46961 23.4615 1.40715 33.7675 0.0712526 38.2523C-0.00337041 38.4976 -0.0197146 38.7568 0.0235058 39.0094C0.0667257 39.262 0.168332 39.5012 0.320332 39.7082C0.472332 39.9152 0.670582 40.0843 0.899488 40.2023C1.12839 40.3202 1.38171 40.3838 1.63952 40.388L16.8253 40.6178C16.694 41.7414 16.6203 42.8709 16.6045 44.0019C16.5819 44.7859 16.8363 45.553 17.3235 46.17L22.3961 52.6454C22.8776 53.2665 23.5622 53.7012 24.3317 53.8744C25.4321 54.1378 26.5452 54.3457 27.6667 54.4972L24.1424 69.1586C24.083 69.4078 24.0825 69.6673 24.141 69.9168C24.1995 70.1663 24.3153 70.3989 24.4794 70.5964C24.6435 70.7939 24.8514 70.9509 25.0868 71.0552C25.3222 71.1595 25.5787 71.2081 25.8362 71.1973C30.5282 71.0389 41.6001 69.6809 46.854 60.9214C48.7107 57.8161 49.4911 54.017 49.6436 50.1394C52.4596 48.65 55.1397 46.9196 57.6535 44.968C71.8495 34.0682 83.4078 12.5984 82.3151 1.81441ZM46.9482 28.5112C45.9408 27.223 45.3405 25.6667 45.2232 24.0394C45.1059 22.412 45.4769 20.7867 46.2892 19.3689C47.1015 17.9511 48.3186 16.8046 49.7867 16.0743C51.2547 15.3441 52.9077 15.063 54.5366 15.2665C56.1654 15.4701 57.6969 16.1491 58.9374 17.2178C60.1779 18.2865 61.0715 19.6968 61.5054 21.2703C61.9393 22.8438 61.8938 24.5098 61.3748 26.0577C60.8558 27.6055 59.8865 28.9656 58.5896 29.9659C57.7294 30.6308 56.7457 31.1206 55.6949 31.4074C54.6441 31.6941 53.5466 31.7722 52.4654 31.6371C51.3842 31.502 50.3404 31.1563 49.3937 30.62C48.447 30.0836 47.616 29.367 46.9482 28.5112Z" fill="white"/>
                </svg>